<svg width="60" height="60" viewBox="0 0 60 60" fill="none" xmlns="http://www.w3.org/2000/svg">
<g id="&#208;&#168;&#208;&#176;&#209;&#128; 2">
<g id="&#208;&#168;&#208;&#176;&#209;&#128; 1">
<g id="Medicaid">
<path id="Vector" d="M19.1448 38.2894C16.7586 38.2894 12.5625 39.6947 11.4967 40.1289C11.4474 40.6579 11.4809 53.3348 11.4474 54.0256C13.125 54.2427 19.9145 55.4644 26.2105 58.6381C28.7369 59.921 33.1342 59.4 36.2901 58.6105C39.2704 57.8625 55.8119 51.5309 57.6671 50.8223C58.8691 50.175 59.7474 47.4848 59.0487 45.9868C58.2 44.1138 56.1987 43.421 54.7066 43.5789L43.0619 47.8401C42.9138 47.8756 42.7717 47.5125 43.0875 47.098C43.6599 46.3282 45.3059 43.0046 41.7395 40.9914C40.7349 40.346 32.2441 40.6618 31.6145 40.719C29.2441 40.5157 22.2809 38.2894 19.1448 38.2894Z" fill="#FFE0BF"/>
<path id="Vector_2" d="M0.78949 39.8684C0.78949 39.4496 0.955843 39.048 1.25195 38.7519C1.54806 38.4558 1.94967 38.2894 2.36844 38.2894H9.86844C10.2872 38.2894 10.6888 38.4558 10.9849 38.7519C11.281 39.048 11.4474 39.4496 11.4474 39.8684V54.671C11.4474 55.0898 11.281 55.4914 10.9849 55.7875C10.6888 56.0836 10.2872 56.25 9.86844 56.25H2.36844C1.94967 56.25 1.54806 56.0836 1.25195 55.7875C0.955843 55.4914 0.78949 55.0898 0.78949 54.671V39.8684Z" fill="#E2E4F1"/>
<path id="Vector_3" d="M29.9013 29.6052C32.7704 29.6052 35.5751 28.7544 37.9607 27.1604C40.3463 25.5664 42.2057 23.3008 43.3036 20.6501C44.4016 17.9993 44.6889 15.0825 44.1291 12.2685C43.5694 9.45453 42.1878 6.86971 40.159 4.84093C38.1302 2.81214 35.5454 1.43053 32.7314 0.870787C29.9174 0.311048 27.0006 0.598326 24.3499 1.6963C21.6991 2.79426 19.4335 4.65361 17.8395 7.0392C16.2455 9.4248 15.3947 12.2295 15.3947 15.0986C15.3947 18.946 16.9231 22.6358 19.6436 25.3563C22.3641 28.0768 26.0539 29.6052 29.9013 29.6052Z" fill="white"/>
<path id="Vector_4" fill-rule="evenodd" clip-rule="evenodd" d="M29.8914 6.24874C29.5764 6.24609 29.264 6.30632 28.9726 6.4259C28.6811 6.54547 28.4164 6.72199 28.194 6.94512C27.9717 7.16825 27.796 7.4335 27.6774 7.72535C27.5588 8.0172 27.4996 8.32978 27.5033 8.64479V11.8422C27.5035 11.942 27.4841 12.041 27.446 12.1333C27.4079 12.2256 27.3519 12.3094 27.2813 12.3801C27.2107 12.4507 27.1268 12.5066 27.0345 12.5447C26.9422 12.5828 26.8433 12.6023 26.7434 12.602H23.1434C21.8052 12.602 20.7552 14.0606 20.7552 15.3928C20.7552 16.7251 21.825 17.9862 23.1434 17.9862H26.7434C26.8432 17.9857 26.9421 18.005 27.0344 18.0428C27.1267 18.0807 27.2105 18.1365 27.2812 18.2069C27.3518 18.2774 27.4078 18.3611 27.4459 18.4533C27.484 18.5455 27.5035 18.6444 27.5033 18.7441V21.9336C27.4941 22.2529 27.549 22.5707 27.6649 22.8684C27.7807 23.166 27.9551 23.4374 28.1777 23.6665C28.4002 23.8956 28.6665 24.0777 28.9607 24.202C29.2549 24.3263 29.5711 24.3904 29.8904 24.3904C30.2098 24.3904 30.526 24.3263 30.8202 24.202C31.1144 24.0777 31.3807 23.8956 31.6032 23.6665C31.8258 23.4374 32.0002 23.166 32.116 22.8684C32.2318 22.5707 32.2868 22.2529 32.2776 21.9336V18.6968C32.2774 18.5969 32.2968 18.498 32.3349 18.4057C32.373 18.3134 32.429 18.2295 32.4996 18.1589C32.5702 18.0883 32.6541 18.0323 32.7464 17.9942C32.8387 17.9561 32.9376 17.9366 33.0375 17.9369H36.6375C37.9776 17.9369 39.0256 16.6757 39.0256 15.3435C39.0256 14.0112 37.9559 12.7501 36.6375 12.7501H33.0375C32.836 12.7501 32.6427 12.67 32.5002 12.5275C32.3577 12.385 32.2776 12.1917 32.2776 11.9902V8.63493C32.28 8.32091 32.2199 8.00955 32.1008 7.71898C31.9817 7.42841 31.806 7.16442 31.584 6.94237C31.3619 6.72032 31.0979 6.54464 30.8074 6.42556C30.5168 6.30648 30.2055 6.24638 29.8914 6.24874Z" fill="#FF624E"/>
<path id="Vector_5" fill-rule="evenodd" clip-rule="evenodd" d="M30.0987 30.1974C33.0849 30.1974 36.0041 29.3118 38.4871 27.6528C40.97 25.9937 42.9053 23.6356 44.048 20.8767C45.1908 18.1178 45.4898 15.0819 44.9072 12.1531C44.3247 9.22423 42.8867 6.5339 40.7751 4.42231C38.6635 2.31072 35.9731 0.87271 33.0443 0.290124C30.1154 -0.292462 27.0796 0.00654205 24.3207 1.14933C21.5617 2.29211 19.2037 4.22735 17.5446 6.71031C15.8855 9.19328 15 12.1125 15 15.0987C15.0031 19.1021 16.5949 22.9407 19.4258 25.7716C22.2566 28.6025 26.0952 30.1942 30.0987 30.1974ZM30.0987 1.57895C32.7726 1.57895 35.3865 2.37187 37.6098 3.85744C39.8332 5.34301 41.566 7.4545 42.5893 9.92491C43.6126 12.3953 43.8803 15.1137 43.3586 17.7363C42.837 20.3588 41.5494 22.7678 39.6586 24.6586C37.7678 26.5494 35.3588 27.837 32.7363 28.3586C30.1137 28.8803 27.3953 28.6126 24.9249 27.5893C22.4545 26.566 20.343 24.8332 18.8574 22.6099C17.3719 20.3865 16.5789 17.7726 16.5789 15.0987C16.581 11.5137 18.0061 8.07609 20.5411 5.5411C23.0761 3.00611 26.5137 1.58105 30.0987 1.57895ZM59.7158 45.9C59.5022 45.3153 59.1755 44.7785 58.7543 44.3202C58.3332 43.8619 57.8258 43.4911 57.2613 43.229C56.6967 42.9668 56.086 42.8186 55.4641 42.7926C54.8422 42.7666 54.2213 42.8635 53.6368 43.0776L44.4217 46.4546C44.6462 45.8956 44.7602 45.2984 44.7572 44.6961C44.7536 43.4409 44.2534 42.2382 43.3658 41.3506C42.4783 40.4631 41.2756 39.9629 40.0204 39.9592H31.9737C31.9342 39.9592 31.7151 39.9178 31.6204 39.9C30.3987 39.673 25.4092 38.7533 22.9954 38.0033C18.7737 36.6809 13.9974 38.2993 12.0039 39.1105C11.9651 38.7193 11.7818 38.3567 11.4898 38.0935C11.1978 37.8304 10.8181 37.6856 10.425 37.6875H1.57895C1.16018 37.6875 0.758573 37.8539 0.462463 38.15C0.166353 38.4461 0 38.8477 0 39.2665L0 55.2533C0 55.6721 0.166353 56.0737 0.462463 56.3698C0.758573 56.6659 1.16018 56.8322 1.57895 56.8322H10.4605C10.8793 56.8322 11.2809 56.6659 11.577 56.3698C11.8731 56.0737 12.0395 55.6721 12.0395 55.2533V54.977C12.7895 55.0559 19.0855 55.7467 24.2763 58.6105C25.9342 59.5184 27.9868 59.9921 30.375 59.9921C31.6516 59.9805 32.9253 59.8684 34.1842 59.6566C36.1232 59.3293 38.0266 58.8178 39.8684 58.1289L56.8993 51.8882C59.3408 51.075 60.6039 48.3553 59.7158 45.9ZM10.4605 55.3007H1.57895V39.3138H10.4605V55.3007ZM56.3428 50.4434L39.2921 56.702C38.9329 56.8421 30.3118 60.1974 25.0441 57.2941C19.2434 54.0947 12.0592 53.4434 12.0592 53.4434V40.8553C13.2039 40.3421 18.3355 38.2086 22.577 39.5329C25.2217 40.3618 30.5507 41.329 31.6164 41.5066C31.7535 41.5295 31.892 41.5427 32.0309 41.5461H40.0816C40.9191 41.5461 41.7223 41.8788 42.3145 42.471C42.9068 43.0632 43.2395 43.8664 43.2395 44.704C43.2395 45.5415 42.9068 46.3447 42.3145 46.9369C41.7223 47.5291 40.9191 47.8618 40.0816 47.8618H27.2724C27.063 47.8618 26.8622 47.945 26.7141 48.0931C26.5661 48.2411 26.4829 48.4419 26.4829 48.6513C26.4829 48.8607 26.5661 49.0615 26.7141 49.2096C26.8622 49.3576 27.063 49.4408 27.2724 49.4408H40.0796C40.6748 49.442 41.2646 49.3281 41.8164 49.1053L54.2092 44.5441C54.5967 44.3983 55.0095 44.332 55.4232 44.3489C55.8368 44.3659 56.2428 44.4658 56.6171 44.6428C56.9938 44.8163 57.3324 45.0625 57.6135 45.3674C57.8947 45.6722 58.1128 46.0296 58.2553 46.4191C58.5231 47.2071 58.4729 48.0685 58.1154 48.8201C57.7578 49.5716 57.1211 50.1541 56.3408 50.4434H56.3428ZM26.4592 18.7303H23.5717C22.6583 18.7303 21.7823 18.3674 21.1364 17.7215C20.4905 17.0756 20.1276 16.1996 20.1276 15.2862C20.1276 14.3728 20.4905 13.4967 21.1364 12.8509C21.7823 12.205 22.6583 11.8421 23.5717 11.8421H26.4592V8.76316C26.4807 7.86479 26.8527 7.01045 27.4957 6.38268C28.1387 5.7549 29.0017 5.40348 29.9003 5.40348C30.799 5.40348 31.662 5.7549 32.3049 6.38268C32.9479 7.01045 33.3199 7.86479 33.3414 8.76316V11.8618H36.4283C37.3417 11.8618 38.2177 12.2247 38.8636 12.8706C39.5095 13.5165 39.8724 14.3925 39.8724 15.3059C39.8724 16.2194 39.5095 17.0954 38.8636 17.7413C38.2177 18.3871 37.3417 18.75 36.4283 18.75H33.3414V21.6316C33.3199 22.53 32.9479 23.3843 32.3049 24.0121C31.662 24.6398 30.799 24.9913 29.9003 24.9913C29.0017 24.9913 28.1387 24.6398 27.4957 24.0121C26.8527 23.3843 26.4807 22.53 26.4592 21.6316V18.7303ZM27.2487 13.4408H23.5717C23.077 13.4408 22.6026 13.6373 22.2529 13.9871C21.9031 14.3369 21.7066 14.8113 21.7066 15.3059C21.7066 15.8006 21.9031 16.275 22.2529 16.6248C22.6026 16.9746 23.077 17.1711 23.5717 17.1711H27.2507C27.46 17.1711 27.6608 17.2542 27.8089 17.4023C27.957 17.5503 28.0401 17.7512 28.0401 17.9605V21.6118C28.0401 22.1049 28.236 22.5778 28.5847 22.9265C28.9333 23.2752 29.4062 23.4711 29.8993 23.4711C30.3924 23.4711 30.8653 23.2752 31.214 22.9265C31.5627 22.5778 31.7586 22.1049 31.7586 21.6118V17.9408C31.7586 17.7314 31.8417 17.5306 31.9898 17.3826C32.1378 17.2345 32.3386 17.1513 32.548 17.1513H36.4243C36.668 17.1513 36.9092 17.1033 37.1343 17.0101C37.3594 16.9169 37.5639 16.7802 37.7362 16.6079C37.9085 16.4357 38.0451 16.2311 38.1384 16.006C38.2316 15.7809 38.2796 15.5397 38.2796 15.2961C38.2796 15.0524 38.2316 14.8112 38.1384 14.5861C38.0451 14.361 37.9085 14.1565 37.7362 13.9842C37.5639 13.8119 37.3594 13.6753 37.1343 13.582C36.9092 13.4888 36.668 13.4408 36.4243 13.4408H32.552C32.4979 13.444 32.4438 13.4373 32.3921 13.4211C32.2154 13.3828 32.0569 13.2859 31.9423 13.1462C31.8276 13.0065 31.7636 12.8321 31.7605 12.6513V8.7829C31.7605 8.28981 31.5646 7.81691 31.216 7.46824C30.8673 7.11957 30.3944 6.92369 29.9013 6.92369C29.4082 6.92369 28.9353 7.11957 28.5867 7.46824C28.238 7.81691 28.0421 8.28981 28.0421 8.7829V12.6513C28.0421 12.7552 28.0216 12.858 27.9818 12.9539C27.942 13.0498 27.8837 13.1369 27.8102 13.2103C27.7367 13.2836 27.6494 13.3417 27.5534 13.3813C27.4574 13.4208 27.3545 13.4411 27.2507 13.4408H27.2487Z" fill="#445665"/>
</g>
</g>
</g>
</svg>
